<svg width="5" height="6" viewBox="0 0 5 6" fill="none" xmlns="http://www.w3.org/2000/svg">
<path d="M0.96 2.12C1 1.448 1.448 1.208 2.384 1.208C3.368 1.208 3.76 1.416 3.76 2.024C3.76 2.432 3.608 2.512 2.304 2.576C1.392 2.616 0.232 2.76 0.232 3.88C0.232 4.816 1.136 5.128 1.848 5.128C3.208 5.128 3.608 4.568 3.792 4.296H3.808C3.808 4.624 3.848 5.032 4.448 5.032C4.64 5.032 4.824 4.992 4.944 4.968V4.568C4.84 4.576 4.736 4.584 4.632 4.584C4.4 4.584 4.304 4.464 4.304 4.12V1.944C4.304 1.144 3.792 0.711999 2.4 0.711999C0.976 0.711999 0.504 1.248 0.416 2.12H0.96ZM3.76 3.392C3.76 4.248 2.824 4.68 2.024 4.68C1.384 4.68 0.824 4.488 0.824 3.84C0.824 3.336 1.216 3.136 1.912 3.072C3.08 2.968 3.512 2.928 3.76 2.76V3.392Z" fill="white"/>
</svg>
